<?xml version="1.0" encoding="utf-8"?>
<!-- Generator: Adobe Illustrator 18.1.0, SVG Export Plug-In . SVG Version: 6.00 Build 0)  -->
<!DOCTYPE svg PUBLIC "-//W3C//DTD SVG 1.1//EN" "http://www.w3.org/Graphics/SVG/1.1/DTD/svg11.dtd">
<svg version="1.1" id="Layer_1" xmlns="http://www.w3.org/2000/svg" xmlns:xlink="http://www.w3.org/1999/xlink" x="0px" y="0px"
	 viewBox="0 0 312.5 94.5" enable-background="new 0 0 312.5 94.5" xml:space="preserve">
<g>
	<rect x="123.5" y="106.7" fill-rule="evenodd" clip-rule="evenodd" fill="#EF3F3F" width="77.1" height="86.3"/>
	<rect x="200.5" y="106.7" fill-rule="evenodd" clip-rule="evenodd" fill="#FFCB3C" width="77.1" height="86.3"/>
	<rect x="277.5" y="106.7" fill-rule="evenodd" clip-rule="evenodd" fill="#51B848" width="77.1" height="86.3"/>
	<rect x="354.4" y="106.7" fill-rule="evenodd" clip-rule="evenodd" fill="#0081C1" width="77.1" height="86.3"/>
</g>
<g>
	<path fill-rule="evenodd" clip-rule="evenodd" fill="#333031" d="M205.1,58.6c0,5.5,0.8,17.8-2.2,22.3c-1.1,1.7-3.8,3.3-5.4,1
		C193.7,76.4,200.3,61,205.1,58.6z M200.6,24.8c3-1,4.3,1.8,4.7,4.4c0.5,3.4-1,4.9-1.1,8.1c-0.6,12.5-8,19.3-9.5,9.5
		C193.8,40.7,194.5,26.9,200.6,24.8z M172.3,25.4c4.4-1,5.1,4.9,4.9,6.6c-0.3,2.3-0.9-1-1.5,5.6c-0.3,3.3-0.8,8.9-2.4,11.9
		c-1.2,2.3-5.6,6.1-6.8-2C165.6,41.5,166.1,26.8,172.3,25.4z M152.6,6.8C151.2,5.7,148.3,5,146,5c-0.7,3.4-0.5,7.3-0.7,10.9
		c-0.2,2.8-0.9,2-3.7,2c-1.8,0-3.7,0-4.9,0.9c-0.1,3.3,5.9,2.9,8.1,3.8c0.2,8.9-1.9,19.3,1.1,27.4c1.1,3.1,4.3,7.3,8.9,5.3
		c3.5-1.5,4.7-6,6-8.6c2.4,7.9,2.4,7.8,8.7,9c4.7,0.9,7-5.2,8.4-9c0.7,1.7,0.5,2.4,1.6,4c0.7,1,1.7,2.1,3.3,2.5
		c3.8,0.9,5.5-2,7.1-3.7l0.3-0.3c1.3,5.7,4.5,5.7,7.8,6.4c4.7,1,5.6-4.2,7.4-6.4c-0.5,9.7,0.3,5-3.4,9c-1,1.1-1.9,1.8-2.8,3
		c-4.5,5.8-10.8,20.3-2.6,24.1c2.1,1,7.9,1.9,10.2,0.9c2.4-1,3.5-4.1,4.1-7.2c1.3-7.2,0.1-15.1,0.7-22.3c1.8-0.4,2.9,0.6,3.9-1.1
		c-0.2-2-2.1-2-4-2.1c-0.1-3.4-0.1-6.9,0-10.3c0.2-7.5,1.3-6.5,1.5-8.4c-0.7-0.6-0.6-0.4-1.6-0.7c-1.2-0.4-0.8-0.1-1.3-0.9
		c-0.9-2.1,1.5-6.1-0.9-9.3c-2-2.7-4.5-2.1-7.7-3.6c-6.8-3.2-9.7,3.8-11,9.5c-2,9.4,0.2,15.4-3.2,19.2c-3,3.4-4.2-2.5-4.4-5.1
		c-0.4-9.5,3.2-9.4-1.3-11.1c-0.7-4.5,0.7-7.8-2.4-10.7c-0.9-0.9-3.2-1.2-4.6-2c-1.6-0.8-3.5-1.3-5.7-0.9
		c-6.8,1.4-7.7,12.6-8.3,17.8c-0.3,2.4-0.5-0.6-1.7,4.8c-2,8.9-6.3,12-7.6,5.7c-0.7-3.1-0.5-22.4,0.4-25c0.6-0.8,7.3-1.2,8.8-1.2
		c1.6,0,1.9,0.6,2.3,0.1c2.7-3.6-9.3-3-11.1-3.6L152.6,6.8z"/>
	<path fill-rule="evenodd" clip-rule="evenodd" fill="#333031" d="M247.4,25.4c4-1.1,5.1,3.8,5,6.4c-0.1,1.6,0,0.7-0.8,1.7
		c-1.6,2.3-0.1,15.5-5.4,18.3c-5.6,3-5.1-9.6-4.8-13.2C241.8,34.3,242.8,26.7,247.4,25.4z M214.9,22.7c-0.1,4,0.4,8.1,0.3,12.2
		c-0.1,2-0.1,4.1-0.4,6c-0.2,1.5-1,3.9-0.6,5.2c2.9,1,3.4-4.2,3.8-6.6c0.4-2.6,0.7-7,1.4-9.2c0.5-0.1,1-0.3,1.6-0.2
		c2.9,0.2,0.7,4.8,1,11.3c0.2,5,2.1,16.1,9.3,13.4c2.7-1,3.8-3.8,5-6.6c1,1.8,1.5,6.4,5.6,7c4.3,0.6,6.7,1.8,10-5.4
		c0.3-0.6,0.3-0.9,0.6-1.5c0.1-0.3,0.2-0.5,0.4-0.8c0.3-0.5,0.1-0.2,0.5-0.6c0.5,3.1,2.5,6.2,5.9,6.4c3.5,0.2,5.4-3.2,6.7-5.3
		c0.3,2,0,5.3,1.6,6.1c1.5,0.8,4.9,1.2,6.4,0.4c0.8-1,0.5-3.7,0.7-5.1c0.2-1.7,0.4-3.3,0.7-4.9c0.3-1.6,1-7.6,2.6-8.5
		c0.8,5.7-1.3,14.8,2.5,16.5c0.8,0.4,1.8,0.5,2.7,0.4c3.3-0.1,2.2-1.2,3.4-5.9c0.8-3.2,3-10.9,4.8-12.9c0.1,4.6-0.8,7.9,0.1,12.8
		c1.6,8.5,9.1,11,13.6,2.8c0.8-1.5,3.7-8.5,2.2-10.2c-2.4-2.5-2.2,5.7-4.5,9c-1,1.4-3.2,2.9-4.4,0.7c-0.7-1.4-1-4-1-5.8
		c-0.4-14.2,4.5-13.4-0.4-16.5c-1.9-1.2-3.1-1.5-5.7-1.1c-1.2,0.7-6.1,16.3-7,17.7c-0.3,0.4-0.1,0.2-0.4,0.5c-0.1-3.5,0-7.1,0-10.7
		c0-1.8,0.4-3.4-0.9-4.3c-1.1-0.7-2.8-1-4.3-0.7c-2.2,0.4-3.2,4.1-4,6.3c-0.5,1.4-2.1,6.7-2.3,7.8l0-18.3c-0.8-1.3-4.5-1.7-6.1-1.2
		c-0.3,0.8-0.3,11-0.4,12.8c-0.1,2.8,0.2,4.3-0.6,6c-0.6,1.3-0.9,3.3-1.5,4.8c-1.8,4.5-4.9,4.3-5.6-1.1c-0.2-1.9-0.3-4.2-0.1-6.2
		c0.1-1.8,1.1-4.1,0.9-5.4c-0.9-1-1-0.7-2.2-1.5c-0.5-2.7,0.2-5.8-0.8-8.4c-1.3-3.1-2.5-2.5-5.4-3.8c-2.4-1-4.3-2.3-7.5-1
		c-2.3,0.9-3.3,2.5-4.4,4.8c-1,2.1-1.7,4.6-2.1,7.1c-0.4,2.2-0.5,6.5-1,8.2c-1.1,3.5-2.1,12.7-6.2,12.3c-2.3-2.2-2-8.1-1.7-11.6
		c0.2-2.1,0.5-4,0.9-6c0.4-1.7,1.4-3.9,1.4-5.6c-2.1-3.1-6.9-1.2-9.7-2.7c-0.2-1.7,0.2-2.9-0.3-4.6
		C217.9,20.6,216.3,21.5,214.9,22.7z"/>
	<path fill-rule="evenodd" clip-rule="evenodd" fill="#333031" d="M124.3,47c0.9-2.7,1.5-4,1.6-7.3c1.8,2,8.5,6.1,9.3,8.5
		c1.1,3.2-3.3,3.3-5.4,2.2c-1-0.5-1.8-1.3-2.6-1.9C125.8,47.3,125.7,47.7,124.3,47z M106.9,52.8c1-2.8,2.1-14,5-16.3
		c0.4,6-2,15.9,5.8,15.6c2.6-0.1,3.7-1.4,5-2.4c1.3,1.7,1.6,2.2,4.1,3c5.3,1.8,16.3,1,15.1-4.8c-1-5.1-15.9-9.5-10.8-16.4
		c0.8-1.1,3.5-2.2,5.1-1.2c0.2,0.1,2.4,3,4.5,0c0.9-1.3,1.9-4.2,0.6-5.6c-2.5-2.6-12.3-0.1-16,3.6c-3.5,3.4-2.4,7,0,10.6
		c-2.7,0.8-0.9,0.5-2.6,5.4c-0.8,2.2-1.7,4.2-4.3,3.8c-2.1-3.4-0.6-10.1-0.9-14.8c-0.2-2.8-1.2-6.1-4.5-5.2c-2.6,0.7-5.5,9-6.8,12.3
		c-0.2-3.4,0.2-13.8-0.1-15.5c-0.3-1.8-4.8-2.7-5.4-1.7c-0.4,0.6-1.1,20.6-1.1,22.2c-0.1,1.9,0,5.6,1,6.9
		C101.6,53.8,105.1,53.3,106.9,52.8z"/>
	<path fill-rule="evenodd" clip-rule="evenodd" fill="#333031" d="M88.1,34.1c-5.4,1.1-6.7-3.3-7.3-8.2c-1.6-13,5.2-18.1,7.4-14.5
		c0.8,1.2-0.1,5,0,6.9C88.2,23.5,88.2,28.9,88.1,34.1z M88.1,39.2c0.4,4.3-2.6,8.7-4.6,10.5c-2.7,2.5-6.8,4-11.7,2.9
		c-5.2-1.2-6.6-6.2-4.8-8.8c1-1.6,2.5-2.4,3.3-4.3c3-7.2-8-6.3-8.1,4.2C62,54.2,70,57,79.2,56.4c16.6-1,15.7-16.3,15.7-29.4
		c0-5,0-10,0-15c0-9.4,0.3-6.9-6.6-7.8c-2.9-0.4-4.2,0.2-5.7,1.7C73.9,14.9,71.7,39.9,88.1,39.2z"/>
	<path fill-rule="evenodd" clip-rule="evenodd" fill="#333031" d="M9.8,6h37.7c3.6,0,6.5,2.9,6.5,6.5v37.7c0,3.6-2.9,6.5-6.5,6.5
		H9.8c-3.6,0-6.5-2.9-6.5-6.5V12.5C3.3,8.9,6.2,6,9.8,6z M40.2,11.6c-1.3,0-2.3,1-2.3,2.3v5.5c0,1.3,1,2.3,2.3,2.3H46
		c1.3,0,2.3-1,2.3-2.3v-5.5c0-1.3-1-2.3-2.3-2.3H40.2z M48.3,27.5h-4.5c0.4,1.4,0.7,2.8,0.7,4.4c0,8.4-7.1,15.3-15.8,15.3
		c-8.7,0-15.8-6.8-15.8-15.3c0-1.5,0.2-3,0.7-4.4H8.9v21.4c0,1.1,0.9,2,2,2h35.3c1.1,0,2-0.9,2-2V27.5z M28.7,21.4
		c-5.6,0-10.2,4.4-10.2,9.9c0,5.4,4.6,9.9,10.2,9.9c5.6,0,10.2-4.4,10.2-9.9C38.9,25.8,34.3,21.4,28.7,21.4z"/>
</g>
<g>
	<g opacity="0.7">
		<rect x="-7.2" y="-145.5" fill-rule="evenodd" clip-rule="evenodd" fill="#010101" width="338.5" height="82.6"/>
	</g>
</g>
</svg>
